<?xml version="1.0" encoding="utf-8"?>
<svg xmlns="http://www.w3.org/2000/svg" version="1.1" width="200" height="200">
<desc>Image vectorised by GABA program</desc>
<path d="m 0,0 0,-2.961 c 2.898,-2.922 2.175,
    -7.597 4.229,-11.42 1.234,-2.295 3.748,
    -3.559 4.654,-5.499 0.803,-1.719 0.607,
    -4.161 1.268,-5.922 1.93,-5.136 5.384,
    -9.806 7.192,-15.227 2.793,-8.381 5.557,-16.098 8.882,-23.265 3.531,-7.613 1.595,-16.911 5.076,-24.532 1.213,-2.656 4.619,-8.239 6.767,-10.153 3.59,-3.195 10.861,-3.214 15.651,-4.229 l 8.037,0 c 4.743,1.086 12.031,1.047 15.65,3.384 0.945,0.609 3.366,3.746 3.384,4.652 0.094,4.808 -7.939,5.234 -10.151,8.883 -3.588,0.2 -8.242,1.437 -10.998,2.961 -11.706,6.47 -17.509,29.798 -19.035,48.643 -0.752,9.285 0.642,20.719 2.539,28.34 0.976,3.928 2.775,9.072 4.652,13.113 1.762,3.792 5.017,6.831 6.346,10.998 2.258,7.091 4.836,15.252 5.498,22.841 1.105,12.68 -1.609,22.508 8.037,28.34 5.126,-3.743 4.695,-9.893 6.767,-15.65 2.722,-7.561 8.551,-14.629 9.306,-23.265 0.621,-7.114 0.099,-15.567 -0.423,-22.841 -1.047,-14.61 -9.354,-30.774 2.115,-39.337 1.391,-1.04 3.358,-1.293 5.076,-2.539 3.072,-2.226 4.923,-6.149 8.037,-10.151 2.715,-3.491 6.701,-6.051 8.882,-8.883 1.112,-1.443 1.357,-3.362 2.539,-4.653 1.368,-1.495 3.481,-2.001 5.075,-3.384 9.666,-8.387 10.831,-21.483 18.188,-31.723 6.681,-9.298 26.273,-5.301 42.299,-3.384 2.197,2.313 4.414,4.609 3.807,9.728 -6.051,7.596 -15.425,5.634 -24.533,9.729 -4.011,1.803 -8.585,7.051 -12.267,10.998 -4.044,4.335 -5.771,9.522 -8.46,14.381 -5.036,9.1 -9.159,14.081 -10.574,27.071 -0.511,4.685 -3.168,10.615 -2.961,14.805 0.156,3.162 2.485,7.274 3.806,10.998 1.282,3.606 2.815,7.417 3.384,10.997 2.103,13.206 -0.668,25.264 1.693,38.492 0.26,1.466 1.331,2.973 1.691,4.652 0.966,4.493 -0.379,6.683 3.385,8.46 1.682,0.274 1.7,-1.119 3.384,-0.845 1.799,1.583 2.254,4.511 5.075,5.075 1.831,-1.271 1.382,-4.823 3.384,-5.922 4.192,-0.948 4.486,2 5.499,4.23 2.095,-0.476 3.456,-2.032 5.499,-0.423 1.923,-0.332 0.85,-3.661 2.538,-4.23 4.439,0.955 9.976,4.495 12.689,0.423 1.135,0.557 2.248,1.136 3.384,1.692 2.563,-0.458 2.192,-1.878 4.229,-2.115 2.464,-0.286 4.623,2.041 6.769,1.692 2.907,-0.472 3.428,-5.185 7.613,-3.383 1.401,-1.138 0.153,-4.924 2.115,-5.499 2.094,2.134 3.208,5.251 7.191,5.499 2.16,-1.788 4.438,-3.457 8.883,-2.961 1.898,-0.64 1.354,-3.722 2.538,-5.077 2.569,-0.455 2.882,1.348 5.075,1.269 2.567,-0.394 1.952,-3.97 3.385,-5.498 2.726,0.049 4.773,-0.584 6.344,-1.692 0.995,-1.406 -1.208,-2.76 0,-4.23 2.627,-0.513 2.412,1.818 4.653,1.692 2.212,-2.723 2.069,-7.8 7.19,-7.614 2.098,-2.806 2.754,-6.071 4.654,-9.305 3.226,-5.496 6.904,-7.502 5.499,-17.343 -0.3,-2.097 -1.844,-4.029 -2.116,-6.345 -0.799,-6.817 2.08,-13.877 4.23,-21.572 0.665,-2.379 0.749,-7.031 0.423,-10.997 -0.532,-6.477 -2.32,-13.645 -3.384,-20.727 -1.031,-6.862 -4.512,-12.979 -5.075,-19.034 -0.361,-3.858 0.715,-7.398 0.423,-10.575 -0.391,-4.241 -3.32,-9.052 1.268,-12.69 15.002,-0.787 31.838,-3.103 46.528,-0.422 -0.6,5.916 3.391,7.998 2.961,12.689 -0.652,7.125 -9.45,10.607 -13.535,15.227 -4.529,9.954 -7.667,22.497 -5.499,37.223 1.554,10.549 12.648,14.939 13.113,25.379 4.079,2.548 5.935,7.318 13.112,6.769 1.331,4.731 6.86,5.265 10.998,7.19 0.534,1.667 1.315,3.086 2.181,4.422 0.493,0.762 4.756,-1.133 4.756,-1.133 0,0 0.458,2.294 -0.063,3.6 -0.469,1.171 -1.876,1.649 -1.649,2.014 0.457,0.734 2.229,0.474 2.599,1.293 0.272,0.599 -0.835,2.248 -0.634,2.916 0.861,0.634 0.241,-0.403 1.078,0.253 0.454,0.354 5.259,-1.014 5.259,-1.014 0,0 0.365,1.691 0,2.915 -0.364,1.224 -1.458,1.98 -1.286,2.23 0.616,0.893 1.077,1.939 1.294,3.231 3.827,-0.886 8.654,2.698 10.998,0.422 1.985,-0.152 1.283,2.382 3.384,2.115 2.105,-0.151 0.727,-3.784 2.538,-4.23 1.436,-1.128 2.446,0.998 3.807,1.269 0.99,-2.675 4.462,-2.869 5.921,-5.075 1.587,-0.319 0.922,1.616 2.116,1.691 1.744,-0.652 1.46,-3.334 3.806,-3.384 1.789,0.609 1.779,3.015 2.116,5.076 4.761,-2.801 9.62,3.056 14.38,-1.269 1.925,-0.233 0.548,2.837 2.116,2.961 3.843,0.319 2.701,-4.348 6.344,-4.23 0.974,2.463 -1.223,8.264 0.846,10.575 2.296,1.415 2.436,-2.512 5.499,-1.692 0.811,1.023 0.267,3.399 0.423,5.076 3.123,0.892 5.1,0.443 8.46,-0.846 0.158,3.683 -2.319,4.73 -2.115,8.46 1.586,0.91 3.102,-0.38 4.653,0.845 1.254,0.579 0.469,3.197 1.269,4.231 1.146,0.545 2.348,1.035 4.23,0.845 1.103,2.281 2.139,4.629 1.691,8.46 2.09,1.576 4.223,3.109 4.654,6.345 1.683,0.163 2.745,-1.696 4.229,-0.423 1.043,1.778 -0.158,5.798 0.846,7.614 1.273,1.148 1.888,-0.926 3.808,-0.423 0.758,1.778 0.19,4.884 1.691,5.922 1.731,1.024 2.382,-0.424 4.23,-0.423 1.773,1.892 1.576,5.756 3.384,7.613 1.872,0.524 3.543,1.25 5.075,2.115 1.05,3.914 -0.489,8.019 0,12.69 0.196,2.202 3.41,1.384 3.808,3.383 -1.013,3.643 -1.161,8.146 -2.115,11.845 0.678,1.444 2.806,2.487 2.961,4.653 0.186,2.636 -2.788,4.55 -2.538,8.036 0.114,1.597 2.356,3.486 2.538,5.499 0.303,3.389 -2.645,5.596 -3.807,8.883 -1.201,3.394 -1.384,8.432 -2.538,13.112 -1.226,4.967 -2.509,10.015 -1.692,13.536 0.64,2.765 3.48,3.626 6.344,5.922 2.393,1.917 3.667,4.341 6.345,5.498 4.2,1.816 8.512,1.256 13.959,2.961 5.014,3.511 5.534,11.342 1.269,16.074 0.667,2.965 2.793,4.472 5,5.897 0.448,0.29 0.659,0.597 0.991,1.072 0.219,0.484 0.353,0.818 0.353,1.328 l 0,2.85 c 0,0.091 -0.012,0.198 -0.039,0.284 -0.033,0.132 -0.061,0.161 -0.111,0.25 -1.736,3.078 -3.514,8.955 -4.511,12.616 -0.491,1.805 -1.062,2.219 -1.182,2.538 -0.047,0.124 -0.205,0.38 -0.205,0.38 0,0 -0.088,0.147 -0.183,0.242 -0.198,0.249 -0.426,0.7 -1.856,1.834 -5.776,3.827 -20.186,12.354 -32.519,11.315 -1.233,6.886 -3.216,13.834 -8.036,18.189 -4.133,3.733 -10.441,4.426 -14.805,8.037 -2.083,-2.762 -6.64,-0.432 -9.306,-2.539 -2.558,1.532 -3.467,4.711 -6.768,5.5 -1.596,-0.801 -0.224,-4.571 -1.269,-5.922 -2.193,-0.079 -2.506,1.723 -5.076,1.269 -1.554,-0.28 -1.038,-2.628 -2.114,-3.384 -6.474,-0.999 -12.284,-2.662 -19.458,-2.961 -1.091,-0.742 -0.717,-2.949 -1.269,-4.23 -2.008,0.176 -3.461,-0.206 -4.652,-0.846 -1.004,-1.817 -1.829,-3.811 -2.115,-6.345 -2.341,-0.62 -4.043,-1.878 -3.384,-5.498 -1.822,-0.351 -4.283,1.506 -5.076,-0.423 -0.328,-3.43 1.548,-4.656 1.268,-8.037 -1.876,-1.931 -6.371,-1.242 -7.613,-3.807 -0.142,-7.125 -4.946,-12.013 -2.961,-19.035 -2.266,-0.742 -3.507,2.896 -5.499,3.807 -1.701,3.715 -1.511,7.078 -2.538,10.575 -2.341,7.976 -9.218,11.982 -13.535,18.611 -1.575,2.419 -3.326,6.439 -4.652,9.729 -1.398,3.463 -3.307,7.674 -3.385,10.997 -0.146,6.258 3.446,11.02 2.115,17.343 -0.585,2.778 -2.839,5.211 -1.691,9.729 -1.795,1.871 -1.745,5.588 -6.345,4.653 -0.934,1.858 -1.229,4.117 -3.385,5.075 -1.037,0.462 -2.898,-0.499 -4.652,0 -2.875,0.819 -4.465,5.31 -6.768,5.922 -1.488,0.396 -3.608,-0.593 -5.076,-0.423 -4.287,0.498 -8.756,3.799 -13.112,2.115 -1.756,0.358 -2.073,2.158 -4.23,2.115 -3.855,-2.764 -9.671,-1.237 -13.959,-3.807 -0.742,-0.618 -2.551,0.262 -3.806,0.423 -2.935,-2.282 -4.08,-6.354 -9.306,-6.345 -0.015,-3.369 -3.453,-3.315 -4.653,-5.498 4.285,-5.058 -0.029,-12.48 -2.538,-16.92 1.248,-1.572 0.746,-4.894 0.846,-7.613 -4.037,-4.142 -6.514,-9.842 -9.728,-14.805 -0.638,3.952 0.872,7.984 0.845,12.266 -0.027,4.333 -1.358,8.898 -0.845,13.113 0.421,3.466 3.018,6.119 0.845,9.306 -0.85,1.617 -2.84,-0.384 -3.806,1.268 -0.113,2.004 -0.97,3.261 -0.847,5.5 -1.948,1.805 -4.383,3.124 -6.998,4.263 -1.49,0.649 -1.387,4.337 -2.938,4.925 -1.473,0.559 -4.601,-1.981 -6.031,-1.378 -3.746,1.581 -7.175,3.481 -9.412,6.571 l -3.384,0 c 0,0 -1.026,3.485 -2.538,4.23 -2.269,-0.986 -3.784,1.663 -6.344,2.115 -2.463,0.435 -4.85,-0.736 -7.614,-0.846 -4.869,-0.193 -9.741,0.482 -13.536,0 -1.683,-0.291 -1.004,-2.943 -2.961,-2.961 -2.22,-0.247 -3.202,0.746 -5.498,0.423 -5.085,-5.913 -10.458,-11.538 -13.959,-19.034 -5.568,-0.354 -7.347,-4.497 -12.689,-5.076 -1.87,-5.542 -7.893,-5.95 -12.267,-8.46 -3.864,-2.217 -8.519,-7.044 -10.574,-10.575 -3.297,-5.661 -4.205,-13.163 -6.769,-19.457 -0.892,-2.193 -2.606,-3.869 -3.383,-5.922 -1.585,-4.186 -1.794,-9.035 -3.807,-13.112 -2.385,-4.831 -7.555,-7.498 -10.997,-11.844 -0.94,-1.185 -1.229,-3.154 -2.115,-4.23 -3.035,-3.685 -7.862,-6.128 -11.844,-9.305 -12.179,-9.72 -22.277,-20.29 -31.724,-32.147 -2.885,-6.445 -7.299,-12.751 -8.037,-21.573 -0.707,-8.453 -2.332,-18.956 -2.961,-28.339 -0.66,-9.846 0.055,-19.761 -0.423,-28.764 C 18.432,97.299 16.957,94.435 16.496,91.365 15.187,82.626 17.941,72.704 15.228,65.563 13.694,61.53 8.201,60.545 6.282,56.383 6.113,56.016 4.9,53.871 4.9,53.871 c 0,0 1.071,-1.435 1.022,-1.844 2.811,-1.101 2.115,-5.499 2.115,-5.499 0,0 4.232,-1.125 5.921,-2.114 C 13.374,25.541 7.529,11.928 0,0"
    fill="#691d13"/>
</svg>
