<?xml version="1.0" encoding="UTF-8" standalone="no"?>
<svg
   xmlns:dc="http://purl.org/dc/elements/1.1/"
   xmlns:cc="http://creativecommons.org/ns#"
   xmlns:rdf="http://www.w3.org/1999/02/22-rdf-syntax-ns#"
   xmlns:svg="http://www.w3.org/2000/svg"
   xmlns="http://www.w3.org/2000/svg"
   xmlns:sodipodi="http://sodipodi.sourceforge.net/DTD/sodipodi-0.dtd"
   xmlns:inkscape="http://www.inkscape.org/namespaces/inkscape"
   version="1.1"
   width="191.0087"
   height="172.66893"
   id="svg2"
   inkscape:version="0.91 r13725"
   sodipodi:docname="icon.svg">
  <metadata
     id="metadata12">
    <rdf:RDF>
      <cc:Work
         rdf:about="">
        <dc:format>image/svg+xml</dc:format>
        <dc:type
           rdf:resource="http://purl.org/dc/dcmitype/StillImage" />
        <dc:title></dc:title>
      </cc:Work>
    </rdf:RDF>
  </metadata>
  <defs
     id="defs10" />
  <sodipodi:namedview
     pagecolor="#ffffff"
     bordercolor="#666666"
     borderopacity="1"
     objecttolerance="10"
     gridtolerance="10"
     guidetolerance="10"
     inkscape:pageopacity="0"
     inkscape:pageshadow="2"
     inkscape:window-width="1918"
     inkscape:window-height="1028"
     id="namedview8"
     showgrid="false"
     fit-margin-top="0"
     fit-margin-left="0"
     fit-margin-right="0"
     fit-margin-bottom="0"
     inkscape:zoom="1.18"
     inkscape:cx="94.915254"
     inkscape:cy="84.715156"
     inkscape:window-x="0"
     inkscape:window-y="0"
     inkscape:window-maximized="1"
     inkscape:current-layer="svg2" />
  <desc
     id="desc4">Image vectorised by GABA program</desc>
  <path
     d="M 0,41.911855 0,40.709419 C 1.1768535,39.52282 0.8832482,37.624344 1.7173605,36.071857 2.218473,35.139879 3.2393858,34.626579 3.6073106,33.838763 3.9334021,33.140692 3.8538062,32.149018 4.1222343,31.433891 4.9059853,29.348207 6.3086275,27.451762 7.0428375,25.250342 8.1770515,21.846892 9.2994855,18.713086 10.649742,15.80263 12.08365,12.711062 11.297454,8.935226 12.711055,5.840401 13.203646,4.761825 14.586795,2.494616 15.459076,1.71736 16.916941,0.419897 19.869632,0.412183 21.814807,0 l 3.263757,0 c 1.926086,0.441017 4.885678,0.425174 6.355325,1.374213 0.383754,0.247309 1.366905,1.52122 1.374214,1.889138 0.03817,1.952483 -3.223956,2.125479 -4.122235,3.607303 -1.457054,0.08122 -3.346997,0.583553 -4.466187,1.202437 -4.753704,2.627412 -7.110249,12.100706 -7.729945,19.753493 -0.305378,3.770556 0.260714,8.413802 1.031066,11.508622 0.396347,1.595127 1.126907,3.684059 1.889138,5.325073 0.715528,1.539897 2.037355,2.774009 2.57705,4.46619 0.916953,2.879593 1.963856,6.193702 2.232691,9.275527 0.448733,5.149237 -0.653402,9.1403 3.263757,11.508623 2.081621,-1.519999 1.906593,-4.017459 2.748014,-6.355325 1.105386,-3.070456 3.472491,-5.940708 3.779088,-9.447711 0.252178,-2.888932 0.0402,-6.32162 -0.171777,-9.275527 -0.425181,-5.932991 -3.798575,-12.497049 0.858883,-15.974407 0.564872,-0.422335 1.363654,-0.525076 2.061321,-1.031065 1.247507,-0.90396 1.999187,-2.497054 3.26375,-4.122232 1.10254,-1.417664 2.721217,-2.457256 3.606904,-3.607307 0.451571,-0.585989 0.55106,-1.365277 1.031066,-1.889542 0.555531,-0.607105 1.413602,-0.812586 2.060907,-1.374214 3.925281,-3.405886 4.398377,-8.724054 7.385985,-12.882425 2.713096,-3.775836 10.669236,-2.152696 17.177249,-1.374213 0.892182,0.939284 1.792486,1.871675 1.54599,3.95045 -2.457253,3.084672 -6.263956,2.287922 -9.962635,3.950864 -1.628831,0.732185 -3.486287,2.863347 -4.981517,4.466187 -1.642235,1.760406 -2.343553,3.866805 -3.435535,5.839999 -2.04507,3.69543 -3.719384,5.71817 -4.294003,10.993293 -0.207514,1.902537 -1.286497,4.310658 -1.202437,6.012179 0.06336,1.284061 1.009134,2.953907 1.545584,4.466191 0.520607,1.464364 1.143148,3.011977 1.374214,4.465784 0.854006,5.362839 -0.271274,10.259486 0.687513,15.631259 0.105578,0.595331 0.540507,1.207309 0.6867,1.889137 0.392282,1.824567 -0.153908,2.713906 1.374613,3.43553 0.68305,0.111269 0.690358,-0.454416 1.374214,-0.343147 0.730559,0.642842 0.915326,1.831878 2.060914,2.060913 0.74355,-0.516142 0.56122,-1.958578 1.374213,-2.404872 1.70233,-0.384974 1.82172,0.812182 2.233098,1.717766 0.850754,-0.1933 1.403447,-0.825178 2.233089,-0.171777 0.780914,-0.134823 0.34518,-1.4867 1.03066,-1.717766 1.802639,0.387817 4.051167,1.82538 5.152895,0.171777 0.460911,0.226193 0.912889,0.461319 1.374206,0.687106 1.040815,-0.18599 0.890158,-0.762639 1.717361,-0.858883 1.000613,-0.116141 1.877358,0.828832 2.748834,0.687106 1.180503,-0.191674 1.392082,-2.105581 3.091566,-1.373805 0.568936,-0.462132 0.06212,-1.999593 0.858885,-2.233096 0.850354,0.866599 1.302738,2.132384 2.920203,2.233096 0.877159,-0.726092 1.802233,-1.403857 3.607311,-1.202437 0.770758,-0.259898 0.549841,-1.511471 1.030653,-2.061724 1.043249,-0.184771 1.170356,0.54741 2.060911,0.51533 1.042444,-0.16 0.792694,-1.612182 1.374624,-2.232689 1.107008,0.0199 1.938268,-0.237158 2.576247,-0.687106 0.404053,-0.570965 -0.490564,-1.120812 0,-1.717766 1.066795,-0.208324 0.979489,0.738274 1.889525,0.687106 0.89829,-1.105786 0.84022,-3.16751 2.9198,-3.091978 0.85199,-1.139492 1.11838,-2.465378 1.889946,-3.778678 1.31005,-2.231876 2.80366,-3.046496 2.2331,-7.042838 -0.12183,-0.851573 -0.74883,-1.636141 -0.85929,-2.576649 -0.32446,-2.768322 0.84467,-5.635326 1.71776,-8.760197 0.27006,-0.966091 0.30417,-2.855226 0.17178,-4.465784 -0.21603,-2.630252 -0.94213,-5.541114 -1.3742,-8.417051 -0.41869,-2.7866 -1.8323,-5.270656 -2.060916,-7.729535 -0.1466,-1.566704 0.290346,-3.004264 0.171766,-4.294418 -0.158776,-1.72223 -1.348216,-3.67594 0.51493,-5.153294 6.09219,-0.319595 12.92913,-1.260106 18.89461,-0.17137 -0.24366,2.402428 1.37705,3.247913 1.20243,5.152888 -0.26477,2.8934 -3.83756,4.307409 -5.49644,6.183548 -1.83919,4.042234 -3.1135,9.135834 -2.2331,15.115932 0.63107,4.283855 5.13625,6.066596 5.32508,10.306187 1.65644,1.03472 2.41015,2.971774 5.32467,2.74883 0.5405,1.921218 2.78578,2.138071 4.46619,2.919796 0.21685,0.676954 0.534,1.253196 0.88567,1.795735 0.20021,0.309441 1.93138,-0.460101 1.93138,-0.460101 0,0 0.18599,0.931573 -0.0255,1.461927 -0.19046,0.475533 -0.76183,0.669645 -0.66964,0.817868 0.18558,0.298071 0.90518,0.192488 1.05543,0.525076 0.11045,0.243249 -0.33909,0.912893 -0.25746,1.184161 0.34964,0.257462 0.0979,-0.163654 0.43776,0.102742 0.18437,0.143756 2.13563,-0.411777 2.13563,-0.411777 0,0 0.14823,0.686701 0,1.183755 -0.14782,0.497057 -0.59208,0.804062 -0.52223,0.905584 0.25015,0.36264 0.43736,0.787411 0.52549,1.312081 1.55411,-0.359797 3.5143,1.095634 4.46618,0.17137 0.80609,-0.06173 0.52102,0.967309 1.37422,0.858883 0.85481,-0.06132 0.29523,-1.536649 1.03066,-1.717766 0.58315,-0.45807 0.99329,0.405279 1.54599,0.51533 0.40203,-1.086294 1.81198,-1.165076 2.40447,-2.060913 0.64445,-0.129543 0.3744,0.656244 0.85928,0.686701 0.70822,-0.264772 0.59289,-1.353908 1.54558,-1.374212 0.7265,0.247308 0.72244,1.224364 0.85929,2.061318 1.9334,-1.137462 3.9066,1.241015 5.83959,-0.51533 0.78172,-0.09462 0.22253,1.152081 0.85928,1.202436 1.56062,0.129543 1.09686,-1.765684 2.57625,-1.717766 0.39554,1.000203 -0.49665,3.355938 0.34355,4.294414 0.93239,0.574619 0.98924,-1.020101 2.2331,-0.687106 0.32934,0.415432 0.10843,1.380304 0.17178,2.061319 1.26822,0.362233 2.07106,0.179898 3.43553,-0.343553 0.0641,1.495632 -0.94173,1.920811 -0.85889,3.43553 0.64407,0.369544 1.2597,-0.154315 1.88954,0.343147 0.50925,0.235127 0.19047,1.298274 0.51534,1.718172 0.46538,0.221319 0.9535,0.420305 1.71776,0.343147 0.44793,0.926294 0.86863,1.879796 0.6867,3.43553 0.84873,0.640001 1.71493,1.262538 1.88995,2.576649 0.68345,0.06619 1.11472,-0.68873 1.71736,-0.171777 0.42356,0.72203 -0.0641,2.354517 0.34355,3.091979 0.51696,0.466192 0.76671,-0.376041 1.5464,-0.171777 0.30781,0.72203 0.0771,1.983349 0.6867,2.404872 0.70295,0.415836 0.9673,-0.172184 1.71776,-0.171778 0.72,0.768325 0.64,2.337462 1.37422,3.091573 0.7602,0.212792 1.43878,0.507614 2.06091,0.858883 0.4264,1.58944 -0.19858,3.256444 0,5.153296 0.0796,0.894215 1.38477,0.562025 1.5464,1.37381 -0.41138,1.479383 -0.47148,3.30802 -0.85889,4.81015 0.27533,0.58639 1.13949,1.00994 1.20244,1.88954 0.0756,1.07045 -1.13219,1.84772 -1.03066,3.26335 0.0463,0.64852 0.95675,1.41563 1.03066,2.23309 0.12304,1.37624 -1.07412,2.272503 -1.54599,3.607313 -0.48772,1.37827 -0.56204,3.42416 -1.03066,5.32466 -0.49787,2.01706 -1.01888,4.06701 -0.68711,5.49686 0.2599,1.12284 1.4132,1.47248 2.57624,2.40486 0.97178,0.77849 1.48914,1.76285 2.57665,2.23269 1.70558,0.73747 3.45665,0.51006 5.66863,1.20244 2.03614,1.42578 2.2473,4.60589 0.51532,6.52751 0.27088,1.20406 1.13422,1.81603 2.03046,2.39472 0.18193,0.11776 0.26762,0.24244 0.40245,0.43533 0.0889,0.19654 0.14334,0.33219 0.14334,0.53928 l 0,1.15737 c 0,0.0369 -0.005,0.0804 -0.0158,0.11532 -0.0134,0.0536 -0.0248,0.0654 -0.0451,0.10152 -0.70498,1.24996 -1.42702,3.63655 -1.83189,5.12325 -0.19939,0.73301 -0.43126,0.90112 -0.48,1.03066 -0.0191,0.0504 -0.0832,0.15431 -0.0832,0.15431 0,0 -0.0357,0.0596 -0.0743,0.0983 -0.0804,0.10111 -0.173,0.28425 -0.7537,0.74477 -2.34559,1.55411 -8.19736,5.01685 -13.20568,4.59491 -0.50071,2.79635 -1.30599,5.61786 -3.26335,7.3864 -1.67838,1.51593 -4.24,1.79735 -6.01218,3.26375 -0.84589,-1.12162 -2.69645,-0.17544 -3.77909,-1.03107 -1.03877,0.62213 -1.40791,1.9131 -2.74842,2.2335 -0.64812,-0.32527 -0.0909,-1.85624 -0.51532,-2.40487 -0.89057,-0.0321 -1.01768,0.6997 -2.06133,0.51534 -0.63106,-0.11371 -0.42152,-1.06722 -0.85847,-1.37422 -2.62904,-0.40569 -4.98842,-1.08102 -7.90172,-1.20243 -0.44306,-0.30133 -0.29118,-1.19756 -0.51534,-1.71778 -0.81543,0.0715 -1.40548,-0.0836 -1.88914,-0.34355 -0.40771,-0.73787 -0.74273,-1.5476 -0.85887,-2.57664 -0.95067,-0.25178 -1.64183,-0.76264 -1.37422,-2.23269 -0.7399,-0.14253 -1.73929,0.61158 -2.06132,-0.17178 -0.1332,-1.39289 0.62863,-1.89076 0.51493,-3.26376 -0.76182,-0.78416 -2.58721,-0.50436 -3.09158,-1.54598 -0.0577,-2.8934 -2.00852,-4.87838 -1.20243,-7.72994 -0.9202,-0.30132 -1.42416,1.17604 -2.23309,1.54598 -0.69076,1.50863 -0.61361,2.87431 -1.03067,4.29442 -0.95065,3.23898 -3.74334,4.86578 -5.49644,7.55776 -0.63959,0.98233 -1.35066,2.61482 -1.88913,3.95086 -0.56772,1.4063 -1.34295,3.11634 -1.37462,4.46578 -0.0593,2.54132 1.39939,4.47513 0.85888,7.04284 -0.23757,1.12813 -1.15289,2.11614 -0.6867,3.95087 -0.72893,0.75979 -0.70863,2.26923 -2.57665,1.88953 -0.37929,0.75452 -0.49908,1.67188 -1.37462,2.06092 -0.42111,0.18761 -1.17685,-0.20264 -1.88912,0 -1.16753,0.33258 -1.81321,2.15634 -2.74844,2.40487 -0.60426,0.16081 -1.46518,-0.24081 -2.06131,-0.17177 -1.74092,0.20223 -3.55574,1.54273 -5.32467,0.85888 -0.71309,0.14538 -0.84183,0.87634 -1.71777,0.85887 -1.56549,-1.12243 -3.9273,-0.50232 -5.66862,-1.54598 -0.30133,-0.25096 -1.03595,0.10639 -1.54559,0.17178 -1.191876,-0.9267 -1.656846,-2.58031 -3.779076,-2.57665 -0.005,-1.36813 -1.40223,-1.34619 -1.889541,-2.2327 1.740101,-2.054 -0.0118,-5.06801 -1.030661,-6.87106 0.5068,-0.63837 0.302935,-1.9874 0.343551,-3.09156 -1.639386,-1.68203 -2.645275,-3.99676 -3.950459,-6.01218 -0.259081,1.60487 0.354116,3.24222 0.343148,4.98112 -0.01098,1.75958 -0.551469,3.61339 -0.343148,5.32506 0.17097,1.40752 1.22559,2.48487 0.343148,3.77909 -0.345179,0.65664 -1.153295,-0.15594 -1.545585,0.51492 -0.04583,0.81381 -0.3939,1.32427 -0.343953,2.2335 -0.791065,0.733 -1.779897,1.26863 -2.841824,1.73116 -0.605079,0.26356 -0.563253,1.76122 -1.193096,2 -0.598178,0.22701 -1.868431,-0.80446 -2.449139,-0.55959 -1.52122,0.64203 -2.913701,1.41361 -3.822126,2.66843 l -1.374213,0 c 0,0 -0.416654,1.41522 -1.030661,1.71776 -0.921423,-0.4004 -1.53665,0.67533 -2.576244,0.85889 -1.000199,0.17664 -1.969538,-0.29889 -3.091973,-0.34356 -1.977261,-0.0784 -3.955735,0.19574 -5.496855,0 -0.683449,-0.11817 -0.407712,-1.19513 -1.202437,-1.20244 -0.901522,-0.1003 -1.3003,0.30295 -2.232684,0.17178 -2.064977,-2.40122 -4.2469,-4.68548 -5.66863,-7.72954 -2.261113,-0.14375 -2.98355,-1.82619 -5.152888,-2.06131 -0.759394,-2.25056 -3.205281,-2.41625 -4.981516,-3.43553 -1.569143,-0.90031 -3.459492,-2.86051 -4.294012,-4.29441 -1.338883,-2.29888 -1.707613,-5.34538 -2.748833,-7.90132 -0.362228,-0.89057 -1.058269,-1.57116 -1.3738,-2.40488 -0.643654,-1.69989 -0.728534,-3.66904 -1.54599,-5.32467 -0.968527,-1.96182 -3.068023,-3.04486 -4.465788,-4.80974 -0.381722,-0.48121 -0.499087,-1.28081 -0.858883,-1.71776 -1.232485,-1.49644 -3.19269,-2.48853 -4.809741,-3.77867 -4.945788,-3.94721 -9.046496,-8.2396 -12.882833,-13.05462 -1.171577,-2.61726 -2.9640625,-5.17806 -3.2637575,-8.7606 -0.287109,-3.43269 -0.947007,-7.697863 -1.202437,-11.508213 -0.268021,-3.99838 0.02236,-8.024772 -0.171777,-11.680812 -0.07269,-1.369339 -0.671676,-2.532385 -0.858883,-3.779084 -0.531573,-3.548831 0.586804,-7.578068 -0.514924,-10.477964 -0.62294,-1.637766 -2.8535985,-2.037765 -3.632886,-3.727917 -0.068663,-0.149035 -0.561221,-1.0201 -0.561221,-1.0201 0,0 0.4349216,-0.582741 0.4150281,-0.748832 1.1415223,-0.447107 0.8588833,-2.233096 0.8588833,-2.233096 0,0 1.7185726,-0.456852 2.4044596,-0.858476 C 5.4311385,52.283829 3.0575388,46.755709 7.59e-5,41.911855"
     id="path6"
     inkscape:connector-curvature="0"
     style="fill:#691d13" />
</svg>
