<?xml version="1.0" encoding="UTF-8" standalone="no"?>
<svg
   xmlns:dc="http://purl.org/dc/elements/1.1/"
   xmlns:cc="http://creativecommons.org/ns#"
   xmlns:rdf="http://www.w3.org/1999/02/22-rdf-syntax-ns#"
   xmlns:svg="http://www.w3.org/2000/svg"
   xmlns="http://www.w3.org/2000/svg"
   xmlns:sodipodi="http://sodipodi.sourceforge.net/DTD/sodipodi-0.dtd"
   xmlns:inkscape="http://www.inkscape.org/namespaces/inkscape"
   version="1.1"
   width="191.0087"
   height="172.66893"
   id="svg2"
   inkscape:version="0.92.1 r15371"
   sodipodi:docname="icon.svg">
  <metadata
     id="metadata12">
    <rdf:RDF>
      <cc:Work
         rdf:about="">
        <dc:format>image/svg+xml</dc:format>
        <dc:type
           rdf:resource="http://purl.org/dc/dcmitype/StillImage" />
        <dc:title />
      </cc:Work>
    </rdf:RDF>
  </metadata>
  <defs
     id="defs10" />
  <sodipodi:namedview
     pagecolor="#ffffff"
     bordercolor="#666666"
     borderopacity="1"
     objecttolerance="10"
     gridtolerance="10"
     guidetolerance="10"
     inkscape:pageopacity="0"
     inkscape:pageshadow="2"
     inkscape:window-width="958"
     inkscape:window-height="1062"
     id="namedview8"
     showgrid="false"
     fit-margin-top="0"
     fit-margin-left="0"
     fit-margin-right="0"
     fit-margin-bottom="0"
     inkscape:zoom="1.18"
     inkscape:cx="94.915254"
     inkscape:cy="84.715156"
     inkscape:window-x="0"
     inkscape:window-y="16"
     inkscape:window-maximized="0"
     inkscape:current-layer="svg2" />
  <desc
     id="desc4">Image vectorised by GABA program</desc>
  <path
     d="m 0,130.75707 v 1.20244 c 1.1768535,1.1866 0.8832482,3.08507 1.7173605,4.63756 0.5011125,0.93198 1.5220253,1.44528 1.8899501,2.23309 0.3260915,0.69807 0.2464956,1.68975 0.5149237,2.40487 0.783751,2.08569 2.1863932,3.98213 2.9206032,6.18355 1.134214,3.40345 2.256648,6.53726 3.6069045,9.44772 1.433908,3.09156 0.647712,6.8674 2.061313,9.96222 0.492591,1.07858 1.87574,3.34579 2.748021,4.12305 1.457865,1.29746 4.410556,1.30517 6.355731,1.71736 h 3.263757 c 1.926086,-0.44102 4.885678,-0.42518 6.355325,-1.37422 0.383754,-0.24731 1.366905,-1.52122 1.374214,-1.88914 0.03817,-1.95248 -3.223956,-2.12547 -4.122235,-3.6073 -1.457054,-0.0812 -3.346997,-0.58355 -4.466187,-1.20244 -4.753704,-2.62741 -7.110249,-12.1007 -7.729945,-19.75349 -0.305378,-3.77055 0.260714,-8.4138 1.031066,-11.50862 0.396347,-1.59513 1.126907,-3.68406 1.889138,-5.32507 0.715528,-1.5399 2.037355,-2.77401 2.57705,-4.46619 0.916953,-2.8796 1.963856,-6.19371 2.232691,-9.27553 0.448733,-5.14924 -0.653402,-9.1403 3.263757,-11.50862 2.081621,1.52 1.906593,4.01746 2.748014,6.35532 1.105386,3.07046 3.472491,5.94071 3.779088,9.44771 0.252178,2.88893 0.0402,6.32162 -0.171777,9.27553 -0.425181,5.93299 -3.798575,12.49705 0.858883,15.97441 0.564872,0.42233 1.363654,0.52507 2.061321,1.03106 1.247507,0.90396 1.999187,2.49706 3.26375,4.12223 1.10254,1.41767 2.721217,2.45726 3.606904,3.60731 0.451571,0.58599 0.55106,1.36528 1.031066,1.88954 0.555531,0.60711 1.413602,0.81259 2.060907,1.37422 3.925281,3.40588 4.398377,8.72405 7.385985,12.88242 2.713096,3.77584 10.669236,2.1527 17.177249,1.37421 0.892182,-0.93928 1.792486,-1.87167 1.54599,-3.95045 -2.457253,-3.08467 -6.263956,-2.28792 -9.962635,-3.95086 -1.628831,-0.73218 -3.486287,-2.86335 -4.981517,-4.46619 -1.642235,-1.7604 -2.343553,-3.8668 -3.435535,-5.84 -2.04507,-3.69543 -3.719384,-5.71817 -4.294003,-10.99329 -0.207514,-1.90254 -1.286497,-4.31066 -1.202437,-6.01218 0.06336,-1.28406 1.009134,-2.9539 1.545584,-4.46619 0.520607,-1.46436 1.143148,-3.01198 1.374214,-4.46578 0.854006,-5.36284 -0.271274,-10.25949 0.687513,-15.63126 0.105578,-0.59533 0.540507,-1.20731 0.6867,-1.88914 0.392282,-1.82457 -0.153908,-2.7139 1.374613,-3.43553 0.68305,-0.11127 0.690358,0.45442 1.374214,0.34315 0.730559,-0.64284 0.915326,-1.83188 2.060914,-2.06091 0.74355,0.51614 0.56122,1.95857 1.374213,2.40487 1.70233,0.38497 1.82172,-0.81218 2.233098,-1.71777 0.850754,0.1933 1.403447,0.82518 2.233089,0.17178 0.780914,0.13482 0.34518,1.4867 1.03066,1.71776 1.802639,-0.38781 4.051167,-1.82538 5.152895,-0.17177 0.460911,-0.2262 0.912889,-0.46132 1.374206,-0.68711 1.040815,0.18599 0.890158,0.76264 1.717361,0.85888 1.000613,0.11615 1.877358,-0.82883 2.748834,-0.6871 1.180503,0.19167 1.392082,2.10558 3.091566,1.3738 0.568936,0.46214 0.06212,1.9996 0.858885,2.2331 0.850354,-0.8666 1.302738,-2.13238 2.920203,-2.2331 0.877159,0.7261 1.802233,1.40386 3.607311,1.20244 0.770758,0.2599 0.549841,1.51147 1.030653,2.06172 1.043249,0.18478 1.170356,-0.54741 2.060911,-0.51533 1.042444,0.16 0.792694,1.61219 1.374624,2.23269 1.107008,-0.0199 1.938268,0.23716 2.576247,0.68711 0.404053,0.57096 -0.490564,1.12081 0,1.71777 1.066795,0.20832 0.979489,-0.73828 1.889525,-0.68711 0.89829,1.10579 0.84022,3.16751 2.9198,3.09198 0.85199,1.13949 1.11838,2.46538 1.889946,3.77868 1.31005,2.23187 2.80366,3.04649 2.2331,7.04283 -0.12183,0.85158 -0.74883,1.63614 -0.85929,2.57665 -0.32446,2.76832 0.84467,5.63533 1.71776,8.7602 0.27006,0.96609 0.30417,2.85523 0.17178,4.46578 -0.21603,2.63026 -0.94213,5.54112 -1.3742,8.41705 -0.41869,2.7866 -1.8323,5.27066 -2.060916,7.72954 -0.1466,1.5667 0.290346,3.00426 0.171766,4.29442 -0.158776,1.72223 -1.348216,3.67594 0.51493,5.15329 6.09219,0.3196 12.92913,1.26011 18.89461,0.17137 -0.24366,-2.40243 1.37705,-3.24791 1.20243,-5.15289 -0.26477,-2.8934 -3.83756,-4.30741 -5.49644,-6.18354 -1.83919,-4.04224 -3.1135,-9.13584 -2.2331,-15.11594 0.63107,-4.28385 5.13625,-6.06659 5.32508,-10.30618 1.65644,-1.03472 2.41015,-2.97178 5.32467,-2.74883 0.5405,-1.92122 2.78578,-2.13807 4.46619,-2.9198 0.21685,-0.67695 0.534,-1.2532 0.88567,-1.79573 0.20021,-0.30945 1.93138,0.4601 1.93138,0.4601 0,0 0.18599,-0.93158 -0.0255,-1.46193 -0.19046,-0.47553 -0.76183,-0.66965 -0.66964,-0.81787 0.18558,-0.29807 0.90518,-0.19249 1.05543,-0.52507 0.11045,-0.24325 -0.33909,-0.9129 -0.25746,-1.18417 0.34964,-0.25746 0.0979,0.16366 0.43776,-0.10274 0.18437,-0.14375 2.13563,0.41178 2.13563,0.41178 0,0 0.14823,-0.6867 0,-1.18376 -0.14782,-0.49705 -0.59208,-0.80406 -0.52223,-0.90558 0.25015,-0.36264 0.43736,-0.78741 0.52549,-1.31208 1.55411,0.3598 3.5143,-1.09563 4.46618,-0.17137 0.80609,0.0617 0.52102,-0.96731 1.37422,-0.85888 0.85481,0.0613 0.29523,1.53665 1.03066,1.71776 0.58315,0.45807 0.99329,-0.40528 1.54599,-0.51533 0.40203,1.0863 1.81198,1.16508 2.40447,2.06092 0.64445,0.12954 0.3744,-0.65625 0.85928,-0.68671 0.70822,0.26478 0.59289,1.35391 1.54558,1.37422 0.7265,-0.24731 0.72244,-1.22437 0.85929,-2.06132 1.9334,1.13746 3.9066,-1.24102 5.83959,0.51533 0.78172,0.0946 0.22253,-1.15208 0.85928,-1.20244 1.56062,-0.12954 1.09686,1.76569 2.57625,1.71777 0.39554,-1.0002 -0.49665,-3.35594 0.34355,-4.29442 0.93239,-0.57461 0.98924,1.02011 2.2331,0.68711 0.32934,-0.41543 0.10843,-1.3803 0.17178,-2.06132 1.26822,-0.36223 2.07106,-0.1799 3.43553,0.34355 0.0641,-1.49563 -0.94173,-1.92081 -0.85889,-3.43553 0.64407,-0.36954 1.2597,0.15432 1.88954,-0.34314 0.50925,-0.23513 0.19047,-1.29828 0.51534,-1.71817 0.46538,-0.22132 0.9535,-0.42031 1.71776,-0.34315 0.44793,-0.9263 0.86863,-1.8798 0.6867,-3.43553 0.84873,-0.64 1.71493,-1.26254 1.88995,-2.57665 0.68345,-0.0662 1.11472,0.68873 1.71736,0.17178 0.42356,-0.72203 -0.0641,-2.35452 0.34355,-3.091982 0.51696,-0.466192 0.76671,0.376042 1.5464,0.171777 0.30781,-0.72203 0.0771,-1.983349 0.6867,-2.404872 0.70295,-0.415836 0.9673,0.172184 1.71776,0.171778 0.72,-0.768325 0.64,-2.337462 1.37422,-3.091573 0.7602,-0.212792 1.43878,-0.507614 2.06091,-0.858883 0.4264,-1.58944 -0.19858,-3.256444 0,-5.153296 0.0796,-0.894215 1.38477,-0.562025 1.5464,-1.37381 -0.41138,-1.479383 -0.47148,-3.30802 -0.85889,-4.81015 0.27533,-0.58639 1.13949,-1.00994 1.20244,-1.88954 0.0756,-1.07045 -1.13219,-1.84772 -1.03066,-3.26335 0.0463,-0.64852 0.95675,-1.41563 1.03066,-2.23309 0.12304,-1.37624 -1.07412,-2.272503 -1.54599,-3.607313 -0.48772,-1.37827 -0.56204,-3.42416 -1.03066,-5.32466 -0.49787,-2.01706 -1.01888,-4.06701 -0.68711,-5.49686 0.2599,-1.12284 1.4132,-1.47248 2.57624,-2.40486 0.97178,-0.77849 1.48914,-1.76285 2.57665,-2.23269 1.70558,-0.73747 3.45665,-0.51006 5.66863,-1.20244 2.03614,-1.42578 2.2473,-4.60589 0.51532,-6.52751 0.27088,-1.20406 1.13422,-1.81603 2.03046,-2.39472 0.18193,-0.11776 0.26762,-0.24244 0.40245,-0.43533 0.0889,-0.19654 0.14334,-0.33219 0.14334,-0.53928 v -1.15737 c 0,-0.0369 -0.005,-0.0804 -0.0158,-0.11532 -0.0134,-0.0536 -0.0248,-0.0654 -0.0451,-0.10152 -0.70498,-1.24996 -1.42702,-3.63655 -1.83189,-5.12325 -0.19939,-0.73301 -0.43126,-0.90112 -0.48,-1.03066 -0.0191,-0.0504 -0.0832,-0.15431 -0.0832,-0.15431 0,0 -0.0357,-0.0596 -0.0743,-0.0983 -0.0804,-0.10111 -0.173,-0.28425 -0.7537,-0.74477 -2.34559,-1.55411 -8.19736,-5.01685 -13.20568,-4.59491 -0.50071,-2.79635 -1.30599,-5.61786 -3.26335,-7.3864 -1.67838,-1.51593 -4.24,-1.79735 -6.01218,-3.26375 -0.84589,1.12162 -2.69645,0.17544 -3.77909,1.03107 -1.03877,-0.62213 -1.40791,-1.9131 -2.74842,-2.2335 -0.64812,0.32527 -0.0909,1.85624 -0.51532,2.40487 -0.89057,0.0321 -1.01768,-0.6997 -2.06133,-0.51534 -0.63106,0.11371 -0.42152,1.06722 -0.85847,1.37422 -2.62904,0.40569 -4.98842,1.08102 -7.90172,1.20243 -0.44306,0.30133 -0.29118,1.19756 -0.51534,1.71778 -0.81543,-0.0715 -1.40548,0.0836 -1.88914,0.34355 -0.40771,0.73787 -0.74273,1.5476 -0.85887,2.57664 -0.95067,0.25178 -1.64183,0.76264 -1.37422,2.23269 -0.7399,0.14253 -1.73929,-0.61158 -2.06132,0.17178 -0.1332,1.39289 0.62863,1.89076 0.51493,3.26376 -0.76182,0.78416 -2.58721,0.50436 -3.09158,1.54598 -0.0577,2.8934 -2.00852,4.87838 -1.20243,7.72994 -0.9202,0.30132 -1.42416,-1.17604 -2.23309,-1.54598 -0.69076,-1.50863 -0.61361,-2.87431 -1.03067,-4.29442 -0.95065,-3.23898 -3.74334,-4.86578 -5.49644,-7.55776 -0.63959,-0.98233 -1.35066,-2.61482 -1.88913,-3.95086 -0.56772,-1.4063 -1.34295,-3.11634 -1.37462,-4.46578 -0.0593,-2.54132 1.39939,-4.47513 0.85888,-7.04284 -0.23757,-1.12813 -1.15289,-2.11614 -0.6867,-3.95087 -0.72893,-0.75979 -0.70863,-2.2692301 -2.57665,-1.8895301 -0.37929,-0.75452 -0.49908,-1.67188 -1.37462,-2.06092 -0.42111,-0.18761 -1.17685,0.20264 -1.88912,0 -1.16753,-0.33258 -1.81321,-2.15634 -2.74844,-2.40487 -0.60426,-0.16081 -1.46518,0.24081 -2.06131,0.17177 -1.74092,-0.20223 -3.55574,-1.54273 -5.32467,-0.85888 -0.71309,-0.14538 -0.84183,-0.87634 -1.71777,-0.85887 -1.56549,1.12243 -3.9273,0.50232 -5.66862,1.54598 -0.30133,0.25096 -1.03595,-0.10639 -1.54559,-0.17178 -1.191876,0.9267 -1.656846,2.58031 -3.779076,2.57665 -0.005,1.36813 -1.40223,1.34619 -1.889541,2.2327 1.740101,2.0540001 -0.0118,5.0680101 -1.030661,6.8710601 0.5068,0.63837 0.302935,1.9874 0.343551,3.09156 -1.639386,1.68203 -2.645275,3.99676 -3.950459,6.01218 -0.259081,-1.60487 0.354116,-3.24222 0.343148,-4.98112 -0.01098,-1.75958 -0.551469,-3.61339 -0.343148,-5.32506 0.17097,-1.40752 1.22559,-2.48487 0.343148,-3.77909 -0.345179,-0.65664 -1.153295,0.15594 -1.545585,-0.51492 -0.04583,-0.8138101 -0.3939,-1.3242701 -0.343953,-2.2335001 -0.791065,-0.733 -1.779897,-1.26863 -2.841824,-1.73116 -0.605079,-0.26356 -0.563253,-1.76122 -1.193096,-2 -0.598178,-0.22701 -1.868431,0.80446 -2.449139,0.55959 -1.52122,-0.64203 -2.913701,-1.41361 -3.822126,-2.66843 h -1.374213 c 0,0 -0.416654,-1.41522 -1.030661,-1.71776002 -0.921423,0.40040002 -1.53665,-0.67533 -2.576244,-0.85889 -1.000199,-0.17664 -1.969538,0.29889 -3.091973,0.34356 -1.977261,0.0784 -3.955735,-0.19574 -5.496855,0 -0.683449,0.11817 -0.407712,1.19513002 -1.202437,1.20244002 -0.901522,0.1003 -1.3003,-0.30295 -2.232684,-0.17178 -2.064977,2.40122 -4.2469,4.68548 -5.66863,7.72954 -2.261113,0.14375 -2.98355,1.8261901 -5.152888,2.0613101 -0.759394,2.25056 -3.205281,2.41625 -4.981516,3.43553 -1.569143,0.90031 -3.459492,2.86051 -4.294012,4.29441 -1.338883,2.29888 -1.707613,5.34538 -2.748833,7.90132 -0.362228,0.89057 -1.058269,1.57116 -1.3738,2.40488 -0.643654,1.69989 -0.728534,3.66904 -1.54599,5.32467 -0.968527,1.96182 -3.068023,3.04486 -4.465788,4.80974 -0.381722,0.48121 -0.499087,1.28081 -0.858883,1.71776 -1.232485,1.49644 -3.19269,2.48853 -4.809741,3.77867 -4.945788,3.94721 -9.046496,8.2396 -12.882833,13.05462 -1.171577,2.61726 -2.9640625,5.17806 -3.2637575,8.7606 -0.287109,3.43269 -0.947007,7.697863 -1.202437,11.508213 -0.268021,3.99838 0.02236,8.024772 -0.171777,11.680812 -0.07269,1.369339 -0.671676,2.532385 -0.858883,3.779084 -0.531573,3.548831 0.586804,7.578065 -0.514924,10.477965 -0.62294,1.63776 -2.8535985,2.03776 -3.632886,3.72792 -0.068663,0.14903 -0.561221,1.0201 -0.561221,1.0201 0,0 0.4349216,0.58274 0.4150281,0.74883 1.1415223,0.4471 0.8588833,2.23309 0.8588833,2.23309 0,0 1.7185726,0.45686 2.4044596,0.85848 -0.237225,7.66417 -2.6108247,13.19229 -5.6682876,18.03614"
     id="path6"
     inkscape:connector-curvature="0"
     style="fill:#691d13" />
</svg>
